<?xml version="1.0" encoding="UTF-8"?>
<svg xmlns="http://www.w3.org/2000/svg" height="500">
   <g>
      <rect fill="none"
            height="30"
            width="500"
            y="5"
            x="20"
            stroke="black"
            stroke-width="2"/>
      <rect fill="#0D3955" height="30" width="410" y="5" x="20"/>
      <text fill="white" font-size="small" y="25" x="210">82</text>
      <rect fill="darkred"
            height="30"
            width="90"
            y="5"
            x="430"
            stroke="black"
            stroke-width="1"/>
      <text fill="white" font-size="small" y="25" x="458">15.8</text>
      <rect fill="none"
            height="30"
            width="570"
            y="35"
            stroke="black"
            stroke-width="2"
            x="20"/>
      <rect fill="#0D3955"
            height="30"
            width="100"
            y="35"
            x="20"
            stroke="black"
            stroke-width="1"/>
      <text fill="white" font-size="small" y="55" x="53">17.5</text>
      <rect fill="darkred"
            height="30"
            width="350"
            y="35"
            x="120"
            stroke="black"
            stroke-width="1"/>
      <text fill="white" font-size="small" y="55" x="278">61.4</text>
      <rect fill="#033B13"
            height="30"
            width="120"
            y="35"
            x="470"
            stroke="black"
            stroke-width="1"/>
      <text fill="white" font-size="small" y="55" x="520">21.1</text>
      <rect fill="none"
            height="30"
            width="140"
            y="65"
            stroke="black"
            stroke-width="2"
            x="20"/>
      <rect fill="#0D3955"
            height="30"
            width="30"
            y="65"
            x="20"
            stroke="black"
            stroke-width="1"/>
      <text fill="white" font-size="small" y="85" x="20">21.4</text>
      <rect fill="darkred"
            height="30"
            width="110"
            y="65"
            x="50"
            stroke="black"
            stroke-width="1"/>
      <text fill="white" font-size="small" y="85" x="85">78.6</text>
      <text x="2" y="25" font-size="large">y</text>
      <text y="25" x="525">41.32%</text>
      <text x="2" y="55" font-size="large">i</text>
      <text y="55" x="595">47.11%</text>
      <text x="2" y="85" font-size="large">j</text>
      <text y="85" x="165">11.57%</text>
   </g>
   <g>
      <rect y="14"
            x="670"
            width="15"
            height="15"
            fill="#0D3955"
            stroke="black"
            stroke-width="1"/>
      <text y="25" x="692" font-size="small">dypthong</text>
      <rect y="44"
            x="670"
            width="15"
            height="15"
            fill="darkred"
            stroke="black"
            stroke-width="1"/>
      <text y="55" x="692" font-size="small">stable vowel</text>
      <rect y="74"
            x="670"
            width="15"
            height="15"
            fill="#033B13"
            stroke="black"
            stroke-width="1"/>
      <text y="85" x="692" font-size="small">consonant</text>
   </g>
</svg>
