<?xml version="1.0" encoding="UTF-8"?>
<svg xmlns="http://www.w3.org/2000/svg" height="500">
   <g>
      <rect fill="none"
            height="30"
            width="154"
            y="5"
            x="20"
            stroke="black"
            stroke-width="2"/>
      <rect fill="#0D3955" height="30" width="154" y="5" x="20"/>
      <text fill="white" font-size="small" y="25" x="82">100</text>
      <rect fill="none"
            height="30"
            width="286"
            y="35"
            stroke="black"
            stroke-width="2"
            x="20"/>
      <rect fill="#0D3955"
            height="30"
            width="154"
            y="35"
            x="20"
            stroke="black"
            stroke-width="1"/>
      <text fill="white" font-size="small" y="55" x="80">53.8</text>
      <rect fill="darkred"
            height="30"
            width="110"
            y="35"
            x="174"
            stroke="black"
            stroke-width="1"/>
      <text fill="white" font-size="small" y="55" x="212">38.5</text>
      <rect fill="#033B13"
            height="30"
            width="22"
            y="35"
            x="284"
            stroke="black"
            stroke-width="1"/>
      <text fill="white" font-size="small" y="55" x="284">7.7</text>
      <rect fill="none"
            height="30"
            width="264"
            y="65"
            stroke="black"
            stroke-width="2"
            x="20"/>
      <rect fill="#0D3955"
            height="30"
            width="66"
            y="65"
            x="20"
            stroke="black"
            stroke-width="1"/>
      <text fill="white" font-size="small" y="85" x="43">25</text>
      <rect fill="darkred"
            height="30"
            width="198"
            y="65"
            x="86"
            stroke="black"
            stroke-width="1"/>
      <text fill="white" font-size="small" y="85" x="181">75</text>
      <text x="2" y="25" font-size="large">y</text>
      <text y="25" x="179">21.88%</text>
      <text x="2" y="55" font-size="large">i</text>
      <text y="55" x="311">40.62%</text>
      <text x="2" y="85" font-size="large">j</text>
      <text y="85" x="289">37.5%</text>
   </g>
   <g>
      <rect y="14"
            x="400"
            width="15"
            height="15"
            fill="#0D3955"
            stroke="black"
            stroke-width="1"/>
      <text y="25" x="422" font-size="small">dypthong</text>
      <rect y="44"
            x="400"
            width="15"
            height="15"
            fill="darkred"
            stroke="black"
            stroke-width="1"/>
      <text y="55" x="422" font-size="small">stable vowel</text>
      <rect y="74"
            x="400"
            width="15"
            height="15"
            fill="#033B13"
            stroke="black"
            stroke-width="1"/>
      <text y="85" x="422" font-size="small">consonant</text>
   </g>
</svg>
