<svg xmlns="http://www.w3.org/2000/svg" width="820" height="720">
    <g transform="translate(440,350)">
        <line x1="-320" y1="0" x2="320" y2="0" stroke="#32281b" stroke-width="1"></line>
        <line x1="0" y1="-320" x2="0" y2="320" stroke="#32281b" stroke-width="1"></line>
        <polyline points="0,320 -320,0 0,-320 320,0 0,320" stroke-dasharray="2,2" stroke="#32281b" stroke-width="1" fill="none"></polyline>
        <polyline points="0,280 -280,0 0,-280 280,0 0,280" stroke-dasharray="2,2" stroke="#32281b" stroke-width="1" fill="none"></polyline>
        <polyline points="0,40 -40,0 0,-40 40,0 0,40" stroke-dasharray="2,2" stroke="#32281b" stroke-width="1" fill="none"></polyline>
        <polyline points="0,80 -80,0 0,-80 80,0 0,80" stroke-dasharray="2,2" stroke="#32281b" stroke-width="1" fill="none"></polyline>
        <polyline points="0,120 -120,0 0,-120 120,0 0,120" stroke-dasharray="2,2" stroke="#32281b" stroke-width="1" fill="none"></polyline>
        <polyline points="0,160 -160,0 0,-160 160,0 0,160" stroke-dasharray="2,2" stroke="#32281b" stroke-width="1" fill="none"></polyline>
        <polyline points="0,200 -200,0 0,-200 200,0 0,200" stroke-dasharray="2,2" stroke="#32281b" stroke-width="1" fill="none"></polyline>
        <polyline points="0,240 -240,0 0,-240 240,0 0,240" stroke-dasharray="2,2" stroke="#32281b" stroke-width="1" fill="none"></polyline>
        <text font-size="11" fill="#32281b" x="5" y="-5" text-anchor="start">0</text>
        <text font-size="11" fill="#32281b" x="5" y="45" text-anchor="start">10</text>
        <text font-size="11" fill="#32281b" x="5" y="-80" text-anchor="start">20</text>
        <text font-size="11" fill="#32281b" x="5" y="-160" text-anchor="start">40</text>
        <text font-size="11" fill="#32281b" x="5" y="-240" text-anchor="start">60</text>
        <text font-size="11" fill="#32281b" x="5" y="-320" text-anchor="start">80</text>
        <text font-size="11" fill="#32281b" x="5" y="125" text-anchor="start">30</text>
        <text font-size="11" fill="#32281b" x="5" y="205" text-anchor="start">50</text>
        <text font-size="11" fill="#32281b" x="5" y="285" text-anchor="start">70</text>
        <text font-size="11" fill="#32281b" x="-45" y="-5" text-anchor="middle">10</text>
        <text font-size="11" fill="#32281b" x="-125" y="-5" text-anchor="middle">30</text>
        <text font-size="11" fill="#32281b" x="-205" y="-5" text-anchor="middle">50</text>
        <text font-size="11" fill="#32281b" x="-285" y="-5" text-anchor="middle">70</text>
        <text font-size="11" fill="#32281b" x="80" y="-5" text-anchor="start">20</text>
        <text font-size="11" fill="#32281b" x="160" y="-5" text-anchor="start">40</text>
        <text font-size="11" fill="#32281b" x="240" y="-5" text-anchor="start">60</text>
        <text font-size="11" fill="#32281b" x="320" y="-5" text-anchor="start">80</text>
        <text x="25" y="-307">
            <tspan class="en">Linguistic variants</tspan>
            <tspan class="gl pt">Variantes de li<tspan class="pt">́</tspan>ngua</tspan>
        </text>
        <text x="-300" y="-30" text-anchor="end">
            <tspan class="gl pt en">Erro<tspan class="en">r</tspan>
            </tspan>
        </text>
        <text y="17" x="323">
            <tspan class="en">Other</tspan>
            <tspan class="gl pt">Outras</tspan>
        </text>
        <text x="-32" text-anchor="end" y="310">
            <tspan class="pt">Lições divergentes</tspan>
            <tspan class="gl">Leccións diverxentes</tspan>
            <tspan class="en">Divergent readings</tspan>
        </text>
    </g>
    <g transform="translate(440,350)" class="per2">
        <polyline stroke="#2B3966" fill="none" stroke-width="2" points="0,-174.52991452991452 -113.67521367521367,0 0,74.35897435897436 37.43589743589743,0 0,-174.52991452991452"></polyline>
        <polyline stroke="none" fill="#2B3966" opacity=".4" points="0,-174.52991452991452 -113.67521367521367,0 0,74.35897435897436 37.43589743589743,0 0,-174.52991452991452"></polyline>
        <circle fill="#2B3966" r="3.5" cy="-174.52991452991452" cx="0"></circle>
        <circle fill="#2B3966" r="3.5" cy="74.35897435897436" cx="0"></circle>
        <circle fill="#2B3966" r="3.5" cx="-113.67521367521367" cy="0"></circle>
        <circle fill="#2B3966" r="3.5" cx="37.43589743589743" cy="0"></circle>
    </g>
    <g transform="translate(440,350)" class="per3">
        <polyline stroke="#BD6D03" fill="none" stroke-width="2" points="0,-130.91935104632026 -137.26781095697154,0 0,59.20526687044439 72.60757112626382,0 0,-130.91935104632026"></polyline>
        <polyline stroke="none" fill="#BD6D03" opacity=".4" points="0,-130.91935104632026 -137.26781095697154,0 0,59.20526687044439 72.60757112626382,0 0,-130.91935104632026"></polyline>
        <circle fill="#BD6D03" r="3.5" cy="-130.91935104632026" cx="0"></circle>
        <circle fill="#BD6D03" r="3.5" cy="59.20526687044439" cx="0"></circle>
        <circle fill="#BD6D03" r="3.5" cx="-137.26781095697154" cy="0"></circle>
        <circle fill="#BD6D03" r="3.5" cx="72.60757112626382" cy="0"></circle>
    </g>
    <g id="esc1" transform="translate(440,350)" class="VaFdezSen">
        <polyline stroke="#B3A8CC" fill="none" stroke-width="2" points="0,-209.2879256965944 -130.6501547987616,0 0,48.297213622291025 11.764705882352956,0 0,-209.2879256965944"></polyline>
        <polyline stroke="none" fill="#B3A8CC" opacity=".4" points="0,-209.2879256965944 -130.6501547987616,0 0,48.297213622291025 11.764705882352956,0 0,-209.2879256965944"></polyline>
        <circle fill="#B3A8CC" r="3.5" cy="-209.2879256965944" cx="0"></circle>
        <circle fill="#B3A8CC" r="3.5" cy="48.297213622291025" cx="0"></circle>
        <circle fill="#B3A8CC" r="3.5" cx="-130.6501547987616" cy="0"></circle>
        <circle fill="#B3A8CC" r="3.5" cx="11.764705882352956" cy="0"></circle>
    </g>
    <g id="esc2" transform="translate(440,350)" class="JSrzSom">
        <polyline stroke="#CF4205" fill="none" stroke-width="2" points="0,-171.6171617161716 -99.8899889988999,0 0,108.25082508250826 20.242024202420282,0 0,-171.6171617161716"></polyline>
        <polyline stroke="none" fill="#CF4205" opacity=".4" points="0,-171.6171617161716 -99.8899889988999,0 0,108.25082508250826 20.242024202420282,0 0,-171.6171617161716"></polyline>
        <circle fill="#CF4205" r="3.5" cy="-171.6171617161716" cx="0"></circle>
        <circle fill="#CF4205" r="3.5" cy="108.25082508250826" cx="0"></circle>
        <circle fill="#CF4205" r="3.5" cx="-99.8899889988999" cy="0"></circle>
        <circle fill="#CF4205" r="3.5" cx="20.242024202420282" cy="0"></circle>
    </g>
    <g id="esc3" transform="translate(440,350)" class="PaySrzTav">
        <polyline stroke="#6C659D" fill="none" stroke-width="2" points="0,-94.36619718309859 -183.09859154929578,0 0,115.49295774647888 7.042253521126753,0 0,-94.36619718309859"></polyline>
        <polyline stroke="none" fill="#6C659D" opacity=".4" points="0,-94.36619718309859 -183.09859154929578,0 0,115.49295774647888 7.042253521126753,0 0,-94.36619718309859"></polyline>
        <circle fill="#6C659D" r="3.5" cy="-94.36619718309859" cx="0"></circle>
        <circle fill="#6C659D" r="3.5" cy="115.49295774647888" cx="0"></circle>
        <circle fill="#6C659D" r="3.5" cx="-183.09859154929578" cy="0"></circle>
        <circle fill="#6C659D" r="3.5" cx="7.042253521126753" cy="0"></circle>
    </g>
    <g id="esc4" transform="translate(440,350)" class="MartSrz">
        <polyline stroke="#009CA2" fill="none" stroke-width="2" points="0,-168.63070539419087 -137.42738589211618,0 0,77.01244813278008 16.929460580912888,0 0,-168.63070539419087"></polyline>
        <polyline stroke="none" fill="#009CA2" opacity=".4" points="0,-168.63070539419087 -137.42738589211618,0 0,77.01244813278008 16.929460580912888,0 0,-168.63070539419087"></polyline>
        <circle fill="#009CA2" r="3.5" cy="-168.63070539419087" cx="0"></circle>
        <circle fill="#009CA2" r="3.5" cy="77.01244813278008" cx="0"></circle>
        <circle fill="#009CA2" r="3.5" cx="-137.42738589211618" cy="0"></circle>
        <circle fill="#009CA2" r="3.5" cx="16.929460580912888" cy="0"></circle>
    </g>
    <g id="esc5" transform="translate(440,350)" class="AyCarp">
        <polyline stroke="#BC9650" fill="none" stroke-width="2" points="0,-238.55421686746988 -57.83132530120482,0 0,4.819277108433735 98.79518072289162,0 0,-238.55421686746988"></polyline>
        <polyline stroke="none" fill="#BC9650" opacity=".4" points="0,-238.55421686746988 -57.83132530120482,0 0,4.819277108433735 98.79518072289162,0 0,-238.55421686746988"></polyline>
        <circle fill="#BC9650" r="3.5" cy="-238.55421686746988" cx="0"></circle>
        <circle fill="#BC9650" r="3.5" cy="4.819277108433735" cx="0"></circle>
        <circle fill="#BC9650" r="3.5" cx="-57.83132530120482" cy="0"></circle>
        <circle fill="#BC9650" r="3.5" cx="98.79518072289162" cy="0"></circle>
    </g>
    <g id="esc6" transform="translate(440,350)" class="NuFdzTor">
        <polyline stroke="#233310" fill="none" stroke-width="2" points="0,-126.3157894736842 -143.2748538011696,0 0,39.1812865497076 91.22807017543862,0 0,-126.3157894736842"></polyline>
        <polyline stroke="none" fill="#233310" opacity=".4" points="0,-126.3157894736842 -143.2748538011696,0 0,39.1812865497076 91.22807017543862,0 0,-126.3157894736842"></polyline>
        <circle fill="#233310" r="3.5" cy="-126.3157894736842" cx="0"></circle>
        <circle fill="#233310" r="3.5" cy="39.1812865497076" cx="0"></circle>
        <circle fill="#233310" r="3.5" cx="-143.2748538011696" cy="0"></circle>
        <circle fill="#233310" r="3.5" cx="91.22807017543862" cy="0"></circle>
    </g>
    <g id="esc7" transform="translate(440,350)" class="PGarBu">
        <polyline stroke="#FFC938" fill="none" stroke-width="2" points="0,-209.4727435210009 -97.58713136729223,0 0,67.5603217158177 25.379803395889212,0 0,-209.4727435210009"></polyline>
        <polyline stroke="none" fill="#FFC938" opacity=".4" points="0,-209.4727435210009 -97.58713136729223,0 0,67.5603217158177 25.379803395889212,0 0,-209.4727435210009"></polyline>
        <circle fill="#FFC938" r="3.5" cy="-209.4727435210009" cx="0"></circle>
        <circle fill="#FFC938" r="3.5" cy="67.5603217158177" cx="0"></circle>
        <circle fill="#FFC938" r="3.5" cx="-97.58713136729223" cy="0"></circle>
        <circle fill="#FFC938" r="3.5" cx="25.379803395889212" cy="0"></circle>
    </g>
    <g id="esc8" transform="translate(440,350)" class="JNzCam">
        <polyline stroke="#5C647F" fill="none" stroke-width="2" points="0,-82.9090909090909 -91.63636363636364,0 0,49.45454545454545 176.00000000000003,0 0,-82.9090909090909"></polyline>
        <polyline stroke="none" fill="#5C647F" opacity=".4" points="0,-82.9090909090909 -91.63636363636364,0 0,49.45454545454545 176.00000000000003,0 0,-82.9090909090909"></polyline>
        <circle fill="#5C647F" r="3.5" cy="-82.9090909090909" cx="0"></circle>
        <circle fill="#5C647F" r="3.5" cy="49.45454545454545" cx="0"></circle>
        <circle fill="#5C647F" r="3.5" cx="-91.63636363636364" cy="0"></circle>
        <circle fill="#5C647F" r="3.5" cx="176.00000000000003" cy="0"></circle>
    </g>
    <g id="esc9" transform="translate(440,350)" class="FerGarEsg">
        <polyline stroke="#22461E" fill="none" stroke-width="2" points="0,-151.6417910447761 -87.16417910447761,0 0,32.23880597014925 128.955223880597,0 0,-151.6417910447761"></polyline>
        <polyline stroke="none" fill="#22461E" opacity=".4" points="0,-151.6417910447761 -87.16417910447761,0 0,32.23880597014925 128.955223880597,0 0,-151.6417910447761"></polyline>
        <circle fill="#22461E" r="3.5" cy="-151.6417910447761" cx="0"></circle>
        <circle fill="#22461E" r="3.5" cy="32.23880597014925" cx="0"></circle>
        <circle fill="#22461E" r="3.5" cx="-87.16417910447761" cy="0"></circle>
        <circle fill="#22461E" r="3.5" cx="128.955223880597" cy="0"></circle>
    </g>
    <g id="esc10" transform="translate(440,350)" class="RoyQuey">
        <polyline stroke="#EDDF81" fill="none" stroke-width="2" points="0,-87.07482993197279 -247.61904761904762,0 0,10.884353741496598 54.421768707483,0 0,-87.07482993197279"></polyline>
        <polyline stroke="none" fill="#EDDF81" opacity=".4" points="0,-87.07482993197279 -247.61904761904762,0 0,10.884353741496598 54.421768707483,0 0,-87.07482993197279"></polyline>
        <circle fill="#EDDF81" r="3.5" cy="-87.07482993197279" cx="0"></circle>
        <circle fill="#EDDF81" r="3.5" cy="10.884353741496598" cx="0"></circle>
        <circle fill="#EDDF81" r="3.5" cx="-247.61904761904762" cy="0"></circle>
        <circle fill="#EDDF81" r="3.5" cx="54.421768707483" cy="0"></circle>
    </g>
    <g id="esc11" transform="translate(440,350)" class="VasGil">
        <polyline stroke="#6A643A" fill="none" stroke-width="2" points="0,-105.61797752808988 -139.32584269662922,0 0,0 155.05617977528087,0 0,-105.61797752808988"></polyline>
        <polyline stroke="none" fill="#6A643A" opacity=".4" points="0,-105.61797752808988 -139.32584269662922,0 0,0 155.05617977528087,0 0,-105.61797752808988"></polyline>
        <circle fill="#6A643A" r="3.5" cy="-105.61797752808988" cx="0"></circle>
        <circle fill="#6A643A" r="3.5" cy="0" cx="0"></circle>
        <circle fill="#6A643A" r="3.5" cx="-139.32584269662922" cy="0"></circle>
        <circle fill="#6A643A" r="3.5" cx="155.05617977528087" cy="0"></circle>
    </g>
    <g id="esc12" transform="translate(440,350)" class="JSrzCoe">
        <polyline stroke="#B0E9ED" fill="none" stroke-width="2" points="0,-142.62295081967213 -145.9016393442623,0 0,39.34426229508197 72.13114754098362,0 0,-142.62295081967213"></polyline>
        <polyline stroke="none" fill="#B0E9ED" opacity=".4" points="0,-142.62295081967213 -145.9016393442623,0 0,39.34426229508197 72.13114754098362,0 0,-142.62295081967213"></polyline>
        <circle fill="#B0E9ED" r="3.5" cy="-142.62295081967213" cx="0"></circle>
        <circle fill="#B0E9ED" r="3.5" cy="39.34426229508197" cx="0"></circle>
        <circle fill="#B0E9ED" r="3.5" cx="-145.9016393442623" cy="0"></circle>
        <circle fill="#B0E9ED" r="3.5" cx="72.13114754098362" cy="0"></circle>
    </g>
    <g id="esc13" transform="translate(440,350)" class="RoyPaezRib">
        <polyline stroke="#B788A4" fill="none" stroke-width="2" points="0,-110.63829787234043 -129.7872340425532,0 0,29.78723404255319 129.78723404255317,0 0,-110.63829787234043"></polyline>
        <polyline stroke="none" fill="#B788A4" opacity=".4" points="0,-110.63829787234043 -129.7872340425532,0 0,29.78723404255319 129.78723404255317,0 0,-110.63829787234043"></polyline>
        <circle fill="#B788A4" r="3.5" cy="-110.63829787234043" cx="0"></circle>
        <circle fill="#B788A4" r="3.5" cy="29.78723404255319" cx="0"></circle>
        <circle fill="#B788A4" r="3.5" cx="-129.7872340425532" cy="0"></circle>
        <circle fill="#B788A4" r="3.5" cx="129.78723404255317" cy="0"></circle>
    </g>
    <g id="esc14" transform="translate(440,350)" class="JLpzUlh">
        <polyline stroke="#889BB7" fill="none" stroke-width="2" points="0,-133.9421613394216 -99.23896499238965,0 0,106.54490106544901 60.27397260273975,0 0,-133.9421613394216"></polyline>
        <polyline stroke="none" fill="#889BB7" opacity=".4" points="0,-133.9421613394216 -99.23896499238965,0 0,106.54490106544901 60.27397260273975,0 0,-133.9421613394216"></polyline>
        <circle fill="#889BB7" r="3.5" cy="-133.9421613394216" cx="0"></circle>
        <circle fill="#889BB7" r="3.5" cy="106.54490106544901" cx="0"></circle>
        <circle fill="#889BB7" r="3.5" cx="-99.23896499238965" cy="0"></circle>
        <circle fill="#889BB7" r="3.5" cx="60.27397260273975" cy="0"></circle>
    </g>
    <g id="esc15" transform="translate(440,350)" class="PGmzBarr">
        <polyline stroke="#73843A" fill="none" stroke-width="2" points="0,-75.47169811320755 -184.9056603773585,0 0,50.943396226415096 88.67924528301886,0 0,-75.47169811320755"></polyline>
        <polyline stroke="none" fill="#73843A" opacity=".4" points="0,-75.47169811320755 -184.9056603773585,0 0,50.943396226415096 88.67924528301886,0 0,-75.47169811320755"></polyline>
        <circle fill="#73843A" r="3.5" cy="-75.47169811320755" cx="0"></circle>
        <circle fill="#73843A" r="3.5" cy="50.943396226415096" cx="0"></circle>
        <circle fill="#73843A" r="3.5" cx="-184.9056603773585" cy="0"></circle>
        <circle fill="#73843A" r="3.5" cx="88.67924528301886" cy="0"></circle>
    </g>
    <g id="esc16" transform="translate(440,350)" class="AfLpzBay">
        <polyline stroke="#3d4144" fill="none" stroke-width="2" points="0,-183.6734693877551 -73.46938775510205,0 0,20.408163265306122 122.44897959183672,0 0,-183.6734693877551"></polyline>
        <polyline stroke="none" fill="#3d4144" opacity=".4" points="0,-183.6734693877551 -73.46938775510205,0 0,20.408163265306122 122.44897959183672,0 0,-183.6734693877551"></polyline>
        <circle fill="#3d4144" r="3.5" cy="-183.6734693877551" cx="0"></circle>
        <circle fill="#3d4144" r="3.5" cy="20.408163265306122" cx="0"></circle>
        <circle fill="#3d4144" r="3.5" cx="-73.46938775510205" cy="0"></circle>
        <circle fill="#3d4144" r="3.5" cx="122.44897959183672" cy="0"></circle>
    </g>
    <g id="esc17" transform="translate(440,350)" class="JGarGlh">
        <polyline stroke="#6A685A" fill="none" stroke-width="2" points="0,-74.75149105367794 -257.6540755467197,0 0,23.856858846918488 43.73757455268388,0 0,-74.75149105367794"></polyline>
        <polyline stroke="none" fill="#6A685A" opacity=".4" points="0,-74.75149105367794 -257.6540755467197,0 0,23.856858846918488 43.73757455268388,0 0,-74.75149105367794"></polyline>
        <circle fill="#6A685A" r="3.5" cy="-74.75149105367794" cx="0"></circle>
        <circle fill="#6A685A" r="3.5" cy="23.856858846918488" cx="0"></circle>
        <circle fill="#6A685A" r="3.5" cx="-257.6540755467197" cy="0"></circle>
        <circle fill="#6A685A" r="3.5" cx="43.73757455268388" cy="0"></circle>
    </g>
    <g id="esc18" transform="translate(440,350)" class="EstFai">
        <polyline stroke="#2B6273" fill="none" stroke-width="2" points="0,-176.1904761904762 -52.38095238095238,0 0,0 171.4285714285714,0 0,-176.1904761904762"></polyline>
        <polyline stroke="none" fill="#2B6273" opacity=".4" points="0,-176.1904761904762 -52.38095238095238,0 0,0 171.4285714285714,0 0,-176.1904761904762"></polyline>
        <circle fill="#2B6273" r="3.5" cy="-176.1904761904762" cx="0"></circle>
        <circle fill="#2B6273" r="3.5" cy="0" cx="0"></circle>
        <circle fill="#2B6273" r="3.5" cx="-52.38095238095238" cy="0"></circle>
        <circle fill="#2B6273" r="3.5" cx="171.4285714285714" cy="0"></circle>
    </g>
    <g id="esc19" transform="translate(440,350)" class="JVqzTal">
        <polyline stroke="#73473C" fill="none" stroke-width="2" points="0,-147.55555555555554 -133.33333333333334,0 0,23.11111111111111 95.99999999999997,0 0,-147.55555555555554"></polyline>
        <polyline stroke="none" fill="#73473C" opacity=".4" points="0,-147.55555555555554 -133.33333333333334,0 0,23.11111111111111 95.99999999999997,0 0,-147.55555555555554"></polyline>
        <circle fill="#73473C" r="3.5" cy="-147.55555555555554" cx="0"></circle>
        <circle fill="#73473C" r="3.5" cy="23.11111111111111" cx="0"></circle>
        <circle fill="#73473C" r="3.5" cx="-133.33333333333334" cy="0"></circle>
        <circle fill="#73473C" r="3.5" cx="95.99999999999997" cy="0"></circle>
    </g>
    <g id="esc20" transform="translate(440,350)" class="PayGmzCha">
        <polyline stroke="#490301" fill="none" stroke-width="2" points="0,-111.91135734072022 -147.3684210526316,0 0,68.69806094182826 72.02216066481994,0 0,-111.91135734072022"></polyline>
        <polyline stroke="none" fill="#490301" opacity=".4" points="0,-111.91135734072022 -147.3684210526316,0 0,68.69806094182826 72.02216066481994,0 0,-111.91135734072022"></polyline>
        <circle fill="#490301" r="3.5" cy="-111.91135734072022" cx="0"></circle>
        <circle fill="#490301" r="3.5" cy="68.69806094182826" cx="0"></circle>
        <circle fill="#490301" r="3.5" cx="-147.3684210526316" cy="0"></circle>
        <circle fill="#490301" r="3.5" cx="72.02216066481994" cy="0"></circle>
    </g>
    <g id="esc21" transform="translate(440,350)" class="FerVelho">
        <polyline stroke="#f2cf95" fill="none" stroke-width="2" points="0,-90.59656218402426 -150.0505561172902,0 0,54.19615773508595 105.15672396359957,0 0,-90.59656218402426"></polyline>
        <polyline stroke="none" fill="#f2cf95" opacity=".4" points="0,-90.59656218402426 -150.0505561172902,0 0,54.19615773508595 105.15672396359957,0 0,-90.59656218402426"></polyline>
        <circle fill="#f2cf95" r="3.5" cy="-90.59656218402426" cx="0"></circle>
        <circle fill="#f2cf95" r="3.5" cy="54.19615773508595" cx="0"></circle>
        <circle fill="#f2cf95" r="3.5" cx="-150.0505561172902" cy="0"></circle>
        <circle fill="#f2cf95" r="3.5" cx="105.15672396359957" cy="0"></circle>
    </g>
    <g id="esc22" transform="translate(440,350)" class="PEaSol">
        <polyline stroke="#1B0CA2" fill="none" stroke-width="2" points="0,-74.66666666666667 -122.66666666666667,0 0,21.333333333333332 181.33333333333331,0 0,-74.66666666666667"></polyline>
        <polyline stroke="none" fill="#1B0CA2" opacity=".4" points="0,-74.66666666666667 -122.66666666666667,0 0,21.333333333333332 181.33333333333331,0 0,-74.66666666666667"></polyline>
        <circle fill="#1B0CA2" r="3.5" cy="-74.66666666666667" cx="0"></circle>
        <circle fill="#1B0CA2" r="3.5" cy="21.333333333333332" cx="0"></circle>
        <circle fill="#1B0CA2" r="3.5" cx="-122.66666666666667" cy="0"></circle>
        <circle fill="#1B0CA2" r="3.5" cx="181.33333333333331" cy="0"></circle>
    </g>
    <g id="esc23" transform="translate(440,350)" class="FerPad">
        <polyline stroke="#630C03" fill="none" stroke-width="2" points="0,-60.273972602739725 -201.36986301369862,0 0,108.21917808219177 30.13698630136988,0 0,-60.273972602739725"></polyline>
        <polyline stroke="none" fill="#630C03" opacity=".4" points="0,-60.273972602739725 -201.36986301369862,0 0,108.21917808219177 30.13698630136988,0 0,-60.273972602739725"></polyline>
        <circle fill="#630C03" r="3.5" cy="-60.273972602739725" cx="0"></circle>
        <circle fill="#630C03" r="3.5" cy="108.21917808219177" cx="0"></circle>
        <circle fill="#630C03" r="3.5" cx="-201.36986301369862" cy="0"></circle>
        <circle fill="#630C03" r="3.5" cx="30.13698630136988" cy="0"></circle>
    </g>
    <g id="esc24" transform="translate(440,350)" class="PPon">
        <polyline stroke="#025256" fill="none" stroke-width="2" points="0,-142.46575342465752 -118.98238747553816,0 0,72.01565557729941 66.53620352250488,0 0,-142.46575342465752"></polyline>
        <polyline stroke="none" fill="#025256" opacity=".4" points="0,-142.46575342465752 -118.98238747553816,0 0,72.01565557729941 66.53620352250488,0 0,-142.46575342465752"></polyline>
        <circle fill="#025256" r="3.5" cy="-142.46575342465752" cx="0"></circle>
        <circle fill="#025256" r="3.5" cy="72.01565557729941" cx="0"></circle>
        <circle fill="#025256" r="3.5" cx="-118.98238747553816" cy="0"></circle>
        <circle fill="#025256" r="3.5" cx="66.53620352250488" cy="0"></circle>
    </g>
    <g id="esc25" transform="translate(440,350)" class="VaRdzCal">
        <polyline stroke="#E25C05" fill="none" stroke-width="2" points="0,-100.21786492374727 -92.37472766884531,0 0,64.4880174291939 142.9193899782135,0 0,-100.21786492374727"></polyline>
        <polyline stroke="none" fill="#E25C05" opacity=".4" points="0,-100.21786492374727 -92.37472766884531,0 0,64.4880174291939 142.9193899782135,0 0,-100.21786492374727"></polyline>
        <circle fill="#E25C05" r="3.5" cy="-100.21786492374727" cx="0"></circle>
        <circle fill="#E25C05" r="3.5" cy="64.4880174291939" cx="0"></circle>
        <circle fill="#E25C05" r="3.5" cx="-92.37472766884531" cy="0"></circle>
        <circle fill="#E25C05" r="3.5" cx="142.9193899782135" cy="0"></circle>
    </g>
</svg>