<svg xmlns="http://www.w3.org/2000/svg" width="820" height="720">
    <g transform="translate(440,350)">
        <line x1="-320" y1="0" x2="320" y2="0" stroke="#32281b" stroke-width="1"></line>
        <line x1="0" y1="-320" x2="0" y2="320" stroke="#32281b" stroke-width="1"></line>
        <polyline points="0,320 -320,0 0,-320 320,0 0,320" stroke-dasharray="2,2" stroke="#32281b" stroke-width="1" fill="none"></polyline>
        <polyline points="0,280 -280,0 0,-280 280,0 0,280" stroke-dasharray="2,2" stroke="#32281b" stroke-width="1" fill="none"></polyline>
        <polyline points="0,40 -40,0 0,-40 40,0 0,40" stroke-dasharray="2,2" stroke="#32281b" stroke-width="1" fill="none"></polyline>
        <polyline points="0,80 -80,0 0,-80 80,0 0,80" stroke-dasharray="2,2" stroke="#32281b" stroke-width="1" fill="none"></polyline>
        <polyline points="0,120 -120,0 0,-120 120,0 0,120" stroke-dasharray="2,2" stroke="#32281b" stroke-width="1" fill="none"></polyline>
        <polyline points="0,160 -160,0 0,-160 160,0 0,160" stroke-dasharray="2,2" stroke="#32281b" stroke-width="1" fill="none"></polyline>
        <polyline points="0,200 -200,0 0,-200 200,0 0,200" stroke-dasharray="2,2" stroke="#32281b" stroke-width="1" fill="none"></polyline>
        <polyline points="0,240 -240,0 0,-240 240,0 0,240" stroke-dasharray="2,2" stroke="#32281b" stroke-width="1" fill="none"></polyline>
        <text font-size="11" fill="#32281b" x="5" y="-5" text-anchor="start">0</text>
        <text font-size="11" fill="#32281b" x="5" y="45" text-anchor="start">10</text>
        <text font-size="11" fill="#32281b" x="5" y="-80" text-anchor="start">20</text>
        <text font-size="11" fill="#32281b" x="5" y="-160" text-anchor="start">40</text>
        <text font-size="11" fill="#32281b" x="5" y="-240" text-anchor="start">60</text>
        <text font-size="11" fill="#32281b" x="5" y="-320" text-anchor="start">80</text>
        <text font-size="11" fill="#32281b" x="5" y="125" text-anchor="start">30</text>
        <text font-size="11" fill="#32281b" x="5" y="205" text-anchor="start">50</text>
        <text font-size="11" fill="#32281b" x="5" y="285" text-anchor="start">70</text>
        <text font-size="11" fill="#32281b" x="-45" y="-5" text-anchor="middle">10</text>
        <text font-size="11" fill="#32281b" x="-125" y="-5" text-anchor="middle">30</text>
        <text font-size="11" fill="#32281b" x="-205" y="-5" text-anchor="middle">50</text>
        <text font-size="11" fill="#32281b" x="-285" y="-5" text-anchor="middle">70</text>
        <text font-size="11" fill="#32281b" x="80" y="-5" text-anchor="start">20</text>
        <text font-size="11" fill="#32281b" x="160" y="-5" text-anchor="start">40</text>
        <text font-size="11" fill="#32281b" x="240" y="-5" text-anchor="start">60</text>
        <text font-size="11" fill="#32281b" x="320" y="-5" text-anchor="start">80</text>
        <text x="25" y="-307">Variantes de língua</text>
        <text x="-300" y="-30" text-anchor="end">Erros de cópia</text>
        <text y="17" x="323">Outras</text>
        <text x="-32" text-anchor="end" y="310">Equipolentes</text>
    </g>
    <g transform="translate(440,350)" class="per2">
        <polyline stroke="#2B3966" fill="none" stroke-width="2" points="0,-178.2435129740519 -118.16367265469061,0 0,81.437125748503 22.155688622754496,0 0,-178.2435129740519"></polyline>
        <polyline stroke="none" fill="#2B3966" opacity=".4" points="0,-178.2435129740519 -118.16367265469061,0 0,81.437125748503 22.155688622754496,0 0,-178.2435129740519"></polyline>
        <circle fill="#2B3966" r="3.5" cy="-178.2435129740519" cx="0"></circle>
        <circle fill="#2B3966" r="3.5" cy="81.437125748503" cx="0"></circle>
        <circle fill="#2B3966" r="3.5" cx="-118.16367265469061" cy="0"></circle>
        <circle fill="#2B3966" r="3.5" cx="22.155688622754496" cy="0"></circle>
    </g>
    <g transform="translate(440,350)" class="per3">
        <polyline stroke="#BD6D03" fill="none" stroke-width="2" points="0,-132.86622550927729 -134.5789541974828,0 0,62.851952770208904 69.70286752303102,0 0,-132.86622550927729"></polyline>
        <polyline stroke="none" fill="#BD6D03" opacity=".4" points="0,-132.86622550927729 -134.5789541974828,0 0,62.851952770208904 69.70286752303102,0 0,-132.86622550927729"></polyline>
        <circle fill="#BD6D03" r="3.5" cy="-132.86622550927729" cx="0"></circle>
        <circle fill="#BD6D03" r="3.5" cy="62.851952770208904" cx="0"></circle>
        <circle fill="#BD6D03" r="3.5" cx="-134.5789541974828" cy="0"></circle>
        <circle fill="#BD6D03" r="3.5" cx="69.70286752303102" cy="0"></circle>
    </g>
    <g id="esc1" transform="translate(440,350)" class="VaFdezSen">
        <polyline stroke="#B3A8CC" fill="none" stroke-width="2" points="0,-209.2879256965944 -130.6501547987616,0 0,48.297213622291025 11.764705882352956,0 0,-209.2879256965944"></polyline>
        <polyline stroke="none" fill="#B3A8CC" opacity=".4" points="0,-209.2879256965944 -130.6501547987616,0 0,48.297213622291025 11.764705882352956,0 0,-209.2879256965944"></polyline>
        <circle fill="#B3A8CC" r="3.5" cy="-209.2879256965944" cx="0"></circle>
        <circle fill="#B3A8CC" r="3.5" cy="48.297213622291025" cx="0"></circle>
        <circle fill="#B3A8CC" r="3.5" cx="-130.6501547987616" cy="0"></circle>
        <circle fill="#B3A8CC" r="3.5" cx="11.764705882352956" cy="0"></circle>
    </g>
    <g id="esc2" transform="translate(440,350)" class="JSrzSom">
        <polyline stroke="#CF4205" fill="none" stroke-width="2" points="0,-171.36563876651982 -100,0 0,108.37004405286343 20.264317180616757,0 0,-171.36563876651982"></polyline>
        <polyline stroke="none" fill="#CF4205" opacity=".4" points="0,-171.36563876651982 -100,0 0,108.37004405286343 20.264317180616757,0 0,-171.36563876651982"></polyline>
        <circle fill="#CF4205" r="3.5" cy="-171.36563876651982" cx="0"></circle>
        <circle fill="#CF4205" r="3.5" cy="108.37004405286343" cx="0"></circle>
        <circle fill="#CF4205" r="3.5" cx="-100" cy="0"></circle>
        <circle fill="#CF4205" r="3.5" cx="20.264317180616757" cy="0"></circle>
    </g>
    <g id="esc3" transform="translate(440,350)" class="PaySrzTav">
        <polyline stroke="#6C659D" fill="none" stroke-width="2" points="0,-94.36619718309859 -183.09859154929578,0 0,115.49295774647888 7.042253521126753,0 0,-94.36619718309859"></polyline>
        <polyline stroke="none" fill="#6C659D" opacity=".4" points="0,-94.36619718309859 -183.09859154929578,0 0,115.49295774647888 7.042253521126753,0 0,-94.36619718309859"></polyline>
        <circle fill="#6C659D" r="3.5" cy="-94.36619718309859" cx="0"></circle>
        <circle fill="#6C659D" r="3.5" cy="115.49295774647888" cx="0"></circle>
        <circle fill="#6C659D" r="3.5" cx="-183.09859154929578" cy="0"></circle>
        <circle fill="#6C659D" r="3.5" cx="7.042253521126753" cy="0"></circle>
    </g>
    <g id="esc4" transform="translate(440,350)" class="MartSrz">
        <polyline stroke="#009CA2" fill="none" stroke-width="2" points="0,-168.77076411960132 -137.54152823920265,0 0,76.74418604651163 16.9435215946844,0 0,-168.77076411960132"></polyline>
        <polyline stroke="none" fill="#009CA2" opacity=".4" points="0,-168.77076411960132 -137.54152823920265,0 0,76.74418604651163 16.9435215946844,0 0,-168.77076411960132"></polyline>
        <circle fill="#009CA2" r="3.5" cy="-168.77076411960132" cx="0"></circle>
        <circle fill="#009CA2" r="3.5" cy="76.74418604651163" cx="0"></circle>
        <circle fill="#009CA2" r="3.5" cx="-137.54152823920265" cy="0"></circle>
        <circle fill="#009CA2" r="3.5" cx="16.9435215946844" cy="0"></circle>
    </g>
    <g id="esc5" transform="translate(440,350)" class="AyCarp">
        <polyline stroke="#BC9650" fill="none" stroke-width="2" points="0,-238.55421686746988 -57.83132530120482,0 0,4.819277108433735 98.79518072289162,0 0,-238.55421686746988"></polyline>
        <polyline stroke="none" fill="#BC9650" opacity=".4" points="0,-238.55421686746988 -57.83132530120482,0 0,4.819277108433735 98.79518072289162,0 0,-238.55421686746988"></polyline>
        <circle fill="#BC9650" r="3.5" cy="-238.55421686746988" cx="0"></circle>
        <circle fill="#BC9650" r="3.5" cy="4.819277108433735" cx="0"></circle>
        <circle fill="#BC9650" r="3.5" cx="-57.83132530120482" cy="0"></circle>
        <circle fill="#BC9650" r="3.5" cx="98.79518072289162" cy="0"></circle>
    </g>
    <g id="esc6" transform="translate(440,350)" class="NuFdzTor">
        <polyline stroke="#233310" fill="none" stroke-width="2" points="0,-126.3157894736842 -143.2748538011696,0 0,39.1812865497076 91.22807017543862,0 0,-126.3157894736842"></polyline>
        <polyline stroke="none" fill="#233310" opacity=".4" points="0,-126.3157894736842 -143.2748538011696,0 0,39.1812865497076 91.22807017543862,0 0,-126.3157894736842"></polyline>
        <circle fill="#233310" r="3.5" cy="-126.3157894736842" cx="0"></circle>
        <circle fill="#233310" r="3.5" cy="39.1812865497076" cx="0"></circle>
        <circle fill="#233310" r="3.5" cx="-143.2748538011696" cy="0"></circle>
        <circle fill="#233310" r="3.5" cx="91.22807017543862" cy="0"></circle>
    </g>
    <g id="esc7" transform="translate(440,350)" class="PGarBu">
        <polyline stroke="#FFC938" fill="none" stroke-width="2" points="0,-209.4727435210009 -97.58713136729223,0 0,67.5603217158177 25.379803395889212,0 0,-209.4727435210009"></polyline>
        <polyline stroke="none" fill="#FFC938" opacity=".4" points="0,-209.4727435210009 -97.58713136729223,0 0,67.5603217158177 25.379803395889212,0 0,-209.4727435210009"></polyline>
        <circle fill="#FFC938" r="3.5" cy="-209.4727435210009" cx="0"></circle>
        <circle fill="#FFC938" r="3.5" cy="67.5603217158177" cx="0"></circle>
        <circle fill="#FFC938" r="3.5" cx="-97.58713136729223" cy="0"></circle>
        <circle fill="#FFC938" r="3.5" cx="25.379803395889212" cy="0"></circle>
    </g>
    <g id="esc8" transform="translate(440,350)" class="JNzCam">
        <polyline stroke="#5C647F" fill="none" stroke-width="2" points="0,-87.17948717948718 -68.37606837606837,0 0,49.572649572649574 194.87179487179486,0 0,-87.17948717948718"></polyline>
        <polyline stroke="none" fill="#5C647F" opacity=".4" points="0,-87.17948717948718 -68.37606837606837,0 0,49.572649572649574 194.87179487179486,0 0,-87.17948717948718"></polyline>
        <circle fill="#5C647F" r="3.5" cy="-87.17948717948718" cx="0"></circle>
        <circle fill="#5C647F" r="3.5" cy="49.572649572649574" cx="0"></circle>
        <circle fill="#5C647F" r="3.5" cx="-68.37606837606837" cy="0"></circle>
        <circle fill="#5C647F" r="3.5" cx="194.87179487179486" cy="0"></circle>
    </g>
    <g id="esc9" transform="translate(440,350)" class="JLpzUlh">
        <polyline stroke="#22461E" fill="none" stroke-width="2" points="0,-133.9421613394216 -99.23896499238965,0 0,106.54490106544901 60.27397260273975,0 0,-133.9421613394216"></polyline>
        <polyline stroke="none" fill="#22461E" opacity=".4" points="0,-133.9421613394216 -99.23896499238965,0 0,106.54490106544901 60.27397260273975,0 0,-133.9421613394216"></polyline>
        <circle fill="#22461E" r="3.5" cy="-133.9421613394216" cx="0"></circle>
        <circle fill="#22461E" r="3.5" cy="106.54490106544901" cx="0"></circle>
        <circle fill="#22461E" r="3.5" cx="-99.23896499238965" cy="0"></circle>
        <circle fill="#22461E" r="3.5" cx="60.27397260273975" cy="0"></circle>
    </g>
    <g id="esc10" transform="translate(440,350)" class="PGmzBarr">
        <polyline stroke="#EDDF81" fill="none" stroke-width="2" points="0,-75.47169811320755 -184.9056603773585,0 0,50.943396226415096 88.67924528301886,0 0,-75.47169811320755"></polyline>
        <polyline stroke="none" fill="#EDDF81" opacity=".4" points="0,-75.47169811320755 -184.9056603773585,0 0,50.943396226415096 88.67924528301886,0 0,-75.47169811320755"></polyline>
        <circle fill="#EDDF81" r="3.5" cy="-75.47169811320755" cx="0"></circle>
        <circle fill="#EDDF81" r="3.5" cy="50.943396226415096" cx="0"></circle>
        <circle fill="#EDDF81" r="3.5" cx="-184.9056603773585" cy="0"></circle>
        <circle fill="#EDDF81" r="3.5" cx="88.67924528301886" cy="0"></circle>
    </g>
    <g id="esc11" transform="translate(440,350)" class="AfLpzBay">
        <polyline stroke="#6A643A" fill="none" stroke-width="2" points="0,-183.6734693877551 -73.46938775510205,0 0,20.408163265306122 122.44897959183672,0 0,-183.6734693877551"></polyline>
        <polyline stroke="none" fill="#6A643A" opacity=".4" points="0,-183.6734693877551 -73.46938775510205,0 0,20.408163265306122 122.44897959183672,0 0,-183.6734693877551"></polyline>
        <circle fill="#6A643A" r="3.5" cy="-183.6734693877551" cx="0"></circle>
        <circle fill="#6A643A" r="3.5" cy="20.408163265306122" cx="0"></circle>
        <circle fill="#6A643A" r="3.5" cx="-73.46938775510205" cy="0"></circle>
        <circle fill="#6A643A" r="3.5" cx="122.44897959183672" cy="0"></circle>
    </g>
    <g id="esc12" transform="translate(440,350)" class="JGarGlh">
        <polyline stroke="#B0E9ED" fill="none" stroke-width="2" points="0,-74.75149105367794 -257.6540755467197,0 0,23.856858846918488 43.73757455268388,0 0,-74.75149105367794"></polyline>
        <polyline stroke="none" fill="#B0E9ED" opacity=".4" points="0,-74.75149105367794 -257.6540755467197,0 0,23.856858846918488 43.73757455268388,0 0,-74.75149105367794"></polyline>
        <circle fill="#B0E9ED" r="3.5" cy="-74.75149105367794" cx="0"></circle>
        <circle fill="#B0E9ED" r="3.5" cy="23.856858846918488" cx="0"></circle>
        <circle fill="#B0E9ED" r="3.5" cx="-257.6540755467197" cy="0"></circle>
        <circle fill="#B0E9ED" r="3.5" cx="43.73757455268388" cy="0"></circle>
    </g>
    <g id="esc13" transform="translate(440,350)" class="EstFai">
        <polyline stroke="#B788A4" fill="none" stroke-width="2" points="0,-176.1904761904762 -52.38095238095238,0 0,0 171.4285714285714,0 0,-176.1904761904762"></polyline>
        <polyline stroke="none" fill="#B788A4" opacity=".4" points="0,-176.1904761904762 -52.38095238095238,0 0,0 171.4285714285714,0 0,-176.1904761904762"></polyline>
        <circle fill="#B788A4" r="3.5" cy="-176.1904761904762" cx="0"></circle>
        <circle fill="#B788A4" r="3.5" cy="0" cx="0"></circle>
        <circle fill="#B788A4" r="3.5" cx="-52.38095238095238" cy="0"></circle>
        <circle fill="#B788A4" r="3.5" cx="171.4285714285714" cy="0"></circle>
    </g>
    <g id="esc14" transform="translate(440,350)" class="JVqzTal">
        <polyline stroke="#889BB7" fill="none" stroke-width="2" points="0,-147.55555555555554 -133.33333333333334,0 0,23.11111111111111 95.99999999999997,0 0,-147.55555555555554"></polyline>
        <polyline stroke="none" fill="#889BB7" opacity=".4" points="0,-147.55555555555554 -133.33333333333334,0 0,23.11111111111111 95.99999999999997,0 0,-147.55555555555554"></polyline>
        <circle fill="#889BB7" r="3.5" cy="-147.55555555555554" cx="0"></circle>
        <circle fill="#889BB7" r="3.5" cy="23.11111111111111" cx="0"></circle>
        <circle fill="#889BB7" r="3.5" cx="-133.33333333333334" cy="0"></circle>
        <circle fill="#889BB7" r="3.5" cx="95.99999999999997" cy="0"></circle>
    </g>
    <g id="esc15" transform="translate(440,350)" class="PayGmzCha">
        <polyline stroke="#73843A" fill="none" stroke-width="2" points="0,-111.91135734072022 -147.3684210526316,0 0,68.69806094182826 72.02216066481994,0 0,-111.91135734072022"></polyline>
        <polyline stroke="none" fill="#73843A" opacity=".4" points="0,-111.91135734072022 -147.3684210526316,0 0,68.69806094182826 72.02216066481994,0 0,-111.91135734072022"></polyline>
        <circle fill="#73843A" r="3.5" cy="-111.91135734072022" cx="0"></circle>
        <circle fill="#73843A" r="3.5" cy="68.69806094182826" cx="0"></circle>
        <circle fill="#73843A" r="3.5" cx="-147.3684210526316" cy="0"></circle>
        <circle fill="#73843A" r="3.5" cx="72.02216066481994" cy="0"></circle>
    </g>
    <g id="esc16" transform="translate(440,350)" class="FerVelho">
        <polyline stroke="#3d4144" fill="none" stroke-width="2" points="0,-90.59656218402426 -150.0505561172902,0 0,54.19615773508595 105.15672396359957,0 0,-90.59656218402426"></polyline>
        <polyline stroke="none" fill="#3d4144" opacity=".4" points="0,-90.59656218402426 -150.0505561172902,0 0,54.19615773508595 105.15672396359957,0 0,-90.59656218402426"></polyline>
        <circle fill="#3d4144" r="3.5" cy="-90.59656218402426" cx="0"></circle>
        <circle fill="#3d4144" r="3.5" cy="54.19615773508595" cx="0"></circle>
        <circle fill="#3d4144" r="3.5" cx="-150.0505561172902" cy="0"></circle>
        <circle fill="#3d4144" r="3.5" cx="105.15672396359957" cy="0"></circle>
    </g>
    <g id="esc17" transform="translate(440,350)" class="PEaSol">
        <polyline stroke="#6A685A" fill="none" stroke-width="2" points="0,-74.66666666666667 -122.66666666666667,0 0,21.333333333333332 181.33333333333331,0 0,-74.66666666666667"></polyline>
        <polyline stroke="none" fill="#6A685A" opacity=".4" points="0,-74.66666666666667 -122.66666666666667,0 0,21.333333333333332 181.33333333333331,0 0,-74.66666666666667"></polyline>
        <circle fill="#6A685A" r="3.5" cy="-74.66666666666667" cx="0"></circle>
        <circle fill="#6A685A" r="3.5" cy="21.333333333333332" cx="0"></circle>
        <circle fill="#6A685A" r="3.5" cx="-122.66666666666667" cy="0"></circle>
        <circle fill="#6A685A" r="3.5" cx="181.33333333333331" cy="0"></circle>
    </g>
    <g id="esc18" transform="translate(440,350)" class="FerPad">
        <polyline stroke="#2B6273" fill="none" stroke-width="2" points="0,-60.273972602739725 -201.36986301369862,0 0,108.21917808219177 30.13698630136988,0 0,-60.273972602739725"></polyline>
        <polyline stroke="none" fill="#2B6273" opacity=".4" points="0,-60.273972602739725 -201.36986301369862,0 0,108.21917808219177 30.13698630136988,0 0,-60.273972602739725"></polyline>
        <circle fill="#2B6273" r="3.5" cy="-60.273972602739725" cx="0"></circle>
        <circle fill="#2B6273" r="3.5" cy="108.21917808219177" cx="0"></circle>
        <circle fill="#2B6273" r="3.5" cx="-201.36986301369862" cy="0"></circle>
        <circle fill="#2B6273" r="3.5" cx="30.13698630136988" cy="0"></circle>
    </g>
    <g id="esc19" transform="translate(440,350)" class="PPon">
        <polyline stroke="#73473C" fill="none" stroke-width="2" points="0,-142.46575342465752 -118.98238747553816,0 0,72.01565557729941 66.53620352250488,0 0,-142.46575342465752"></polyline>
        <polyline stroke="none" fill="#73473C" opacity=".4" points="0,-142.46575342465752 -118.98238747553816,0 0,72.01565557729941 66.53620352250488,0 0,-142.46575342465752"></polyline>
        <circle fill="#73473C" r="3.5" cy="-142.46575342465752" cx="0"></circle>
        <circle fill="#73473C" r="3.5" cy="72.01565557729941" cx="0"></circle>
        <circle fill="#73473C" r="3.5" cx="-118.98238747553816" cy="0"></circle>
        <circle fill="#73473C" r="3.5" cx="66.53620352250488" cy="0"></circle>
    </g>
    <g id="esc20" transform="translate(440,350)" class="VaRdzCal">
        <polyline stroke="#490301" fill="none" stroke-width="2" points="0,-100.21786492374727 -92.37472766884531,0 0,64.4880174291939 142.9193899782135,0 0,-100.21786492374727"></polyline>
        <polyline stroke="none" fill="#490301" opacity=".4" points="0,-100.21786492374727 -92.37472766884531,0 0,64.4880174291939 142.9193899782135,0 0,-100.21786492374727"></polyline>
        <circle fill="#490301" r="3.5" cy="-100.21786492374727" cx="0"></circle>
        <circle fill="#490301" r="3.5" cy="64.4880174291939" cx="0"></circle>
        <circle fill="#490301" r="3.5" cx="-92.37472766884531" cy="0"></circle>
        <circle fill="#490301" r="3.5" cx="142.9193899782135" cy="0"></circle>
    </g>
</svg>