<svg xmlns="http://www.w3.org/2000/svg" width="650" height="620">
    <g transform="translate(80,450)">
        <polyline fill="none" stroke="#32281b" stroke-width="1" points="0,0 288,0 298,15 302,-15 312,0 580,0"/>
        <line x1="0" x2="0" y1="0" y2="-422" stroke="#32281b" stroke-width="1"/>
        <text x="-50" y="-241" text-anchor="middle" fill="#32281b" style="writing-mode:tb" transform="rotate(180 -50 -241)">Percentagem variantes significativas</text>
        <text x="330" text-anchor="middle" y="70" fill="#32281b">Folio Ms. A</text>
        <line x1="-3" x2="3" y1="-60" y2="-60" stroke="#32281b" stroke-width="1"/>
        <line x1="-3" x2="3" y1="-120" y2="-120" stroke="#32281b" stroke-width="1"/>
        <line x1="-3" x2="3" y1="-180" y2="-180" stroke="#32281b" stroke-width="1"/>
        <line x1="-3" x2="3" y1="-240" y2="-240" stroke="#32281b" stroke-width="1"/>
        <line x1="-3" x2="3" y1="-300" y2="-300" stroke="#32281b" stroke-width="1"/>
        <line x1="-3" x2="3" y1="-360" y2="-360" stroke="#32281b" stroke-width="1"/>
        <line x1="-3" x2="3" y1="-420" y2="-420" stroke="#32281b" stroke-width="1"/>
        <text text-anchor="end" font-size="11" fill="#32281b" x="-9" y="-55">10</text>
        <text text-anchor="end" font-size="11" fill="#32281b" x="-9" y="-175">30</text>
        <text text-anchor="end" font-size="11" fill="#32281b" x="-9" y="-300">50</text>
        <text text-anchor="end" font-size="11" fill="#32281b" x="-9" y="-415">70</text>
        <line stroke="#32281b" stroke-width="1" y1="-3" y2="3" x1="40" x2="40"/>
        <line stroke="#32281b" stroke-width="1" y1="-3" y2="3" x1="80" x2="80"/>
        <line stroke="#32281b" stroke-width="1" y1="-3" y2="3" x1="120" x2="120"/>
        <line stroke="#32281b" stroke-width="1" y1="-3" y2="3" x1="160" x2="160"/>
        <line stroke="#32281b" stroke-width="1" y1="-3" y2="3" x1="200" x2="200"/>
        <line stroke="#32281b" stroke-width="1" y1="-3" y2="3" x1="240" x2="240"/>
        <line stroke="#32281b" stroke-width="1" y1="-3" y2="3" x1="280" x2="280"/>
        <line stroke="#32281b" stroke-width="1" y1="-3" y2="3" x1="320" x2="320"/>
        <line stroke="#32281b" stroke-width="1" y1="-3" y2="3" x1="360" x2="360"/>
        <line stroke="#32281b" stroke-width="1" y1="-3" y2="3" x1="400" x2="400"/>
        <line stroke="#32281b" stroke-width="1" y1="-3" y2="3" x1="440" x2="440"/>
        <line stroke="#32281b" stroke-width="1" y1="-3" y2="3" x1="480" x2="480"/>
        <line stroke="#32281b" stroke-width="1" y1="-3" y2="3" x1="520" x2="520"/>
        <line stroke="#32281b" stroke-width="1" y1="-3" y2="3" x1="560" x2="560"/>
        <text text-anchor="middle" fill="#32281b" font-size="11" y="20" x="40">1</text>
        <text text-anchor="middle" fill="#32281b" font-size="11" y="20" x="80">5</text>
        <text text-anchor="middle" fill="#32281b" font-size="11" y="20" x="120">10</text>
        <text text-anchor="middle" fill="#32281b" font-size="11" y="20" x="160">15</text>
        <text text-anchor="middle" fill="#32281b" font-size="11" y="20" x="200">20</text>
        <text text-anchor="middle" fill="#32281b" font-size="11" y="20" x="240">25</text>
        <text text-anchor="middle" fill="#32281b" font-size="11" y="20" x="280">30</text>
        <text text-anchor="middle" fill="#32281b" font-size="11" y="20" x="320">55</text>
        <text text-anchor="middle" fill="#32281b" font-size="11" y="20" x="360">60</text>
        <text text-anchor="middle" fill="#32281b" font-size="11" y="20" x="400">65</text>
        <text text-anchor="middle" fill="#32281b" font-size="11" y="20" x="440">70</text>
        <text text-anchor="middle" fill="#32281b" font-size="11" y="20" x="480">75</text>
        <text text-anchor="middle" fill="#32281b" font-size="11" y="20" x="520">80</text>
        <text text-anchor="middle" fill="#32281b" font-size="11" y="20" x="560">85</text>
        <rect height="22" width="22" x="140" y="105" fill="#11894A" stroke-width=".5" stroke="#32281b"/>
        <text fill="#32281b" font-size="11" x="165" y="120">Língua</text>
        <rect height="22" width="22" x="290" y="105" fill="#FFC938" stroke-width=".5" stroke="#32281b"/>
        <text fill="#32281b" font-size="11" x="315" y="120">Erros</text>
        <rect height="22" width="22" x="440" y="105" fill="#2b3966" stroke-width=".5" stroke="#32281b"/>
        <text fill="#32281b" font-size="11" x="465" y="120">Equipolentes</text>
    </g>
    <g transform="translate(80,450)">
        <circle r="3" cx="40" cy="-215.05376344086022" fill="#FFC938"/>
        <circle r="3" cx="40" cy="-305.3763440860215" fill="#11894A"/>
        <circle r="3" cx="40" cy="-79.56989247311827" fill="#2B3966"/>
        <circle r="3" cx="80" cy="-227.16879623402824" fill="#FFC938"/>
        <circle r="3" cx="80" cy="-245.32616005379958" fill="#11894A"/>
        <circle r="3" cx="80" cy="-140.41694687289845" fill="#2B3966"/>
        <circle r="3" cx="120" cy="-264.52494873547505" fill="#FFC938"/>
        <circle r="3" cx="120" cy="-241.96855775803144" fill="#11894A"/>
        <circle r="3" cx="120" cy="-106.63021189336979" fill="#2B3966"/>
        <circle r="3" cx="160" cy="-244.89795918367346" fill="#FFC938"/>
        <circle r="3" cx="160" cy="-240.65934065934067" fill="#11894A"/>
        <circle r="3" cx="160" cy="-132.33908948194662" fill="#2B3966"/>
        <circle r="3" cx="200" cy="-277.64127764127767" fill="#FFC938"/>
        <circle r="3" cx="200" cy="-251.1056511056511" fill="#11894A"/>
        <circle r="3" cx="200" cy="-86.97788697788698" fill="#2B3966"/>
        <circle r="3" cx="240" cy="-222.89239204934887" fill="#FFC938"/>
        <circle r="3" cx="240" cy="-283.34475668265935" fill="#11894A"/>
        <circle r="3" cx="240" cy="-114.73612063056888" fill="#2B3966"/>
        <circle r="3" cx="280" cy="-279.2156862745098" fill="#FFC938"/>
        <circle r="3" cx="280" cy="-231.37254901960785" fill="#11894A"/>
        <circle r="3" cx="280" cy="-121.56862745098039" fill="#2B3966"/>
        <circle r="3" cx="320" cy="-259.0780809031044" fill="#FFC938"/>
        <circle r="3" cx="320" cy="-234.80714957666981" fill="#11894A"/>
        <circle r="3" cx="320" cy="-159.73659454374413" fill="#2B3966"/>
        <circle r="3" cx="360" cy="-308.61423220973785" fill="#FFC938"/>
        <circle r="3" cx="360" cy="-210.4868913857678" fill="#11894A"/>
        <circle r="3" cx="360" cy="-104.8689138576779" fill="#2B3966"/>
        <circle r="3" cx="400" cy="-338.7173396674584" fill="#FFC938"/>
        <circle r="3" cx="400" cy="-190.49881235154393" fill="#11894A"/>
        <circle r="3" cx="400" cy="-91.21140142517815" fill="#2B3966"/>
        <circle r="3" cx="440" cy="-292.17391304347825" fill="#FFC938"/>
        <circle r="3" cx="440" cy="-220.28985507246378" fill="#11894A"/>
        <circle r="3" cx="440" cy="-106.08695652173913" fill="#2B3966"/>
        <circle r="3" cx="480" cy="-319.3687230989957" fill="#FFC938"/>
        <circle r="3" cx="480" cy="-192.8263988522238" fill="#11894A"/>
        <circle r="3" cx="480" cy="-115.35150645624103" fill="#2B3966"/>
        <circle r="3" cx="520" cy="-327.9742765273312" fill="#FFC938"/>
        <circle r="3" cx="520" cy="-111.89710610932475" fill="#11894A"/>
        <circle r="3" cx="520" cy="-160.12861736334406" fill="#2B3966"/>
        <circle r="3" cx="560" cy="-214.70180305131763" fill="#FFC938"/>
        <circle r="3" cx="560" cy="-247.15672676837724" fill="#11894A"/>
        <circle r="3" cx="560" cy="-138.14147018030513" fill="#2B3966"/>
        <polyline fill="none" stroke="#FFC938" stroke-width="3" points="40,-215.05376344086022 80,-227.16879623402824 120,-264.52494873547505 160,-244.89795918367346 200,-277.64127764127767 240,-222.89239204934887 280,-279.2156862745098 320,-259.0780809031044 360,-308.61423220973785 400,-338.7173396674584 440,-292.17391304347825 480,-319.3687230989957 520,-327.9742765273312 560,-214.70180305131763"/>
        <polyline fill="none" stroke="#11894A" stroke-width="3" points="40,-305.3763440860215 80,-245.32616005379958 120,-241.96855775803144 160,-240.65934065934067 200,-251.1056511056511 240,-283.34475668265935 280,-231.37254901960785 320,-234.80714957666981 360,-210.4868913857678 400,-190.49881235154393 440,-220.28985507246378 480,-192.8263988522238 520,-111.89710610932475 560,-247.15672676837724"/>
        <polyline fill="none" stroke="#2B3966" stroke-width="3" points="40,-79.56989247311827 80,-140.41694687289845 120,-106.63021189336979 160,-132.33908948194662 200,-86.97788697788698 240,-114.73612063056888 280,-121.56862745098039 320,-159.73659454374413 360,-104.8689138576779 400,-91.21140142517815 440,-106.08695652173913 480,-115.35150645624103 520,-160.12861736334406 560,-138.14147018030513"/>
    </g>
</svg>